<svg xmlns="http://www.w3.org/2000/svg" version="1.1" xmlns:xlink="http://www.w3.org/1999/xlink" xmlns:svgjs="http://svgjs.dev/svgjs" width="1440" height="560" preserveAspectRatio="none" viewBox="0 0 1440 560"><g mask="url(&quot;#SvgjsMask1004&quot;)" fill="none"><rect width="1440" height="560" x="0" y="0" fill="rgba(37, 33, 33, 1)"></rect><path d="M0,476.966C90.063,484.483,176.653,441.987,251.414,391.207C324.895,341.297,387.433,274.444,419.898,191.761C451.438,111.433,436.88,24.243,429.252,-61.717C421.187,-152.602,418.851,-244.65,374.113,-324.171C323.069,-414.901,260.246,-517.199,159.113,-541.888C58.154,-566.534,-32.638,-479.862,-131.422,-447.582C-226.45,-416.529,-332.883,-418.692,-410.546,-355.74C-495.389,-286.968,-560.165,-190.763,-580.609,-83.479C-601.478,26.038,-594.409,152.887,-523.93,239.271C-455.428,323.231,-324.497,306.609,-225.817,351.378C-145.76,387.698,-87.606,469.654,0,476.966" fill="#1e1a1a"></path><path d="M1440 968.226C1531.547 957.115 1622.333 1007.52 1710.74 981.279 1815.763 950.105 1940.909 909.065 1981.7649999999999 807.4159999999999 2022.788 705.351 1934.73 599.311 1907.056 492.848 1882.974 400.203 1892.96 294.164 1829.681 222.339 1766.5430000000001 150.675 1663.443 138.017 1571.539 112.019 1480.55 86.27999999999997 1390.393 59.73700000000002 1296.573 71.53300000000002 1191.229 84.77699999999999 1069.3310000000001 98.62599999999998 1005.178 183.22500000000002 941.149 267.661 984.188 387.683 976.6759999999999 493.384 969.807 590.044 938.317 684.146 962.9200000000001 777.875 990.402 882.571 1022.918 1012.442 1123.454 1052.555 1226.972 1093.858 1329.359 981.654 1440 968.226" fill="#2c2828"></path></g><defs><mask id="SvgjsMask1004"><rect width="1440" height="560" fill="#ffffff"></rect></mask></defs></svg>