<?xml version="1.0" encoding="UTF-8"?>
<svg xmlns="http://www.w3.org/2000/svg" viewBox="0 0 48 48">
  <path fill="#252F3E" d="M24,0C10.745,0,0,10.745,0,24s10.745,24,24,24s24-10.745,24-24S37.255,0,24,0z"/>
  <path fill="#FF9900" d="M26.214,24.864l-3.379,1.277l-3.379-1.277v-2.553l3.379-1.277l3.379,1.277V24.864z M27.929,23.087l-5.094-1.915v-3.83l5.094,1.915V23.087z M20.071,23.087v-3.83l5.094-1.915v3.83L20.071,23.087z"/>
  <path fill="#FF9900" d="M24,32c-4.418,0-8-3.582-8-8s3.582-8,8-8s8,3.582,8,8S28.418,32,24,32z M24,18c-3.314,0-6,2.686-6,6s2.686,6,6,6s6-2.686,6-6S27.314,18,24,18z"/>
</svg>
