<?xml version="1.0" encoding="UTF-8"?>
<svg xmlns="http://www.w3.org/2000/svg" viewBox="0 0 48 48">
  <path fill="#2396ED" d="M24,0C10.745,0,0,10.745,0,24s10.745,24,24,24s24-10.745,24-24S37.255,0,24,0z"/>
  <path fill="#FFFFFF" d="M29,20h4v4h-4V20z M24,20h4v4h-4V20z M19,20h4v4h-4V20z M14,25h4v4h-4V25z M19,25h4v4h-4V25z M24,25h4v4h-4V25z M19,15h4v4h-4V15z M24,15h4v4h-4V15z"/>
  <path fill="#FFFFFF" d="M38,26c-0.3-2.1-1.5-3.9-3.3-5.2c-0.6-2.4-2-4.5-4-6.1l-0.8-0.6l-0.6,0.8c-1.2,1.6-1.7,3.7-1.5,5.7c0.1,0.7,0.3,1.4,0.6,2.1c-0.4,0.2-0.9,0.4-1.3,0.6c-0.9,0.3-1.8,0.5-2.7,0.5H10v0.8c0,2.3,0.8,4.5,2.3,6.3c1.8,2.2,4.5,3.4,7.5,3.4c7.2,0,12.6-3.1,15.1-9.6c1,0,3.1,0,3.9-2.1C38.9,26.5,38.4,26.2,38,26z"/>
</svg>
