<?xml version="1.0" encoding="UTF-8"?>
<svg xmlns="http://www.w3.org/2000/svg" viewBox="0 0 48 48">
  <path fill="#2196F3" d="M24,0C10.745,0,0,10.745,0,24s10.745,24,24,24s24-10.745,24-24S37.255,0,24,0z"/>
  <path fill="#FFFFFF" d="M35,19c0-1.1-0.9-2-2-2h-2v-2c0-1.1-0.9-2-2-2h-6v-2c0-1.1-0.9-2-2-2h-4c-1.1,0-2,0.9-2,2v2h-2c-1.1,0-2,0.9-2,2v18c0,1.1,0.9,2,2,2h18c1.1,0,2-0.9,2-2v-2h2c1.1,0,2-0.9,2-2V19z M25,25c0,0.6-0.4,1-1,1s-1-0.4-1-1v-6c0-0.6,0.4-1,1-1s1,0.4,1,1V25z M19,25c0,0.6-0.4,1-1,1s-1-0.4-1-1v-6c0-0.6,0.4-1,1-1s1,0.4,1,1V25z"/>
</svg>
