<?xml version="1.0" encoding="UTF-8"?>
<svg xmlns="http://www.w3.org/2000/svg" viewBox="0 0 48 48">
  <path fill="#00796B" d="M24,0C10.745,0,0,10.745,0,24s10.745,24,24,24s24-10.745,24-24S37.255,0,24,0z"/>
  <path fill="#FFFFFF" d="M35.5,18c0,0-0.1-1.4-1.3-2.3c-1.2-0.9-2.3-0.9-2.9-0.9c-4.1-0.3-10.1-0.3-10.1-0.3h0c0,0-6.1,0-10.1,0.3c-0.6,0-1.7,0.1-2.9,0.9C7.1,16.6,7,18,7,18s-0.3,1.9-0.3,3.8v1.8c0,1.9,0.3,3.8,0.3,3.8s0.1,1.4,1.3,2.3c1.2,0.9,2.8,0.9,3.5,1c2.5,0.2,10.7,0.3,10.7,0.3s6.2,0,10.3-0.3c0.6,0,1.7-0.1,2.9-0.9c1.2-0.9,1.3-2.3,1.3-2.3s0.3-1.9,0.3-3.8v-1.8C35.8,19.9,35.5,18,35.5,18z M21.8,25.5v-6.6l8,3.3L21.8,25.5z"/>
</svg>
