<?xml version="1.0" encoding="UTF-8"?>
<svg xmlns="http://www.w3.org/2000/svg" viewBox="0 0 48 48">
  <path fill="#130754" d="M24,0C10.745,0,0,10.745,0,24s10.745,24,24,24s24-10.745,24-24S37.255,0,24,0z M24,44 C12.954,44,4,35.046,4,24S12.954,4,24,4s20,8.954,20,20S35.046,44,24,44z"/>
  <path fill="#130754" d="M24,7c-2.209,0-4,1.791-4,4v6h8v-6C28,8.791,26.209,7,24,7z"/>
  <path fill="#130754" d="M24,31c-2.209,0-4,1.791-4,4v6h8v-6C28,32.791,26.209,31,24,31z"/>
  <path fill="#130754" d="M41,24c0-2.209-1.791-4-4-4h-6v8h6C39.209,28,41,26.209,41,24z"/>
  <path fill="#130754" d="M17,24c0-2.209-1.791-4-4-4H7v8h6C15.209,28,17,26.209,17,24z"/>
</svg>
