<?xml version="1.0" encoding="UTF-8"?>
<svg xmlns="http://www.w3.org/2000/svg" viewBox="0 0 48 48">
  <path fill="#0277BD" d="M24,0C10.745,0,0,10.745,0,24s10.745,24,24,24s24-10.745,24-24S37.255,0,24,0z"/>
  <path fill="#FFFFFF" d="M33.7,25.3c0,0-0.4-1.3-1.2-2.1c-0.8-0.8-1.9-1.2-1.9-1.2s1.2-2.9,1.2-5.9c0-3-0.8-5.1-2.4-6.5c-1.6-1.4-3.6-2.1-6.1-2.1c-2.5,0-4.5,0.7-6.1,2.1c-1.6,1.4-2.4,3.5-2.4,6.5c0,3,1.2,5.9,1.2,5.9s-1.1,0.4-1.9,1.2c-0.8,0.8-1.2,2.1-1.2,2.1s-0.4,1.3,0,2.5c0.4,1.2,1.2,2.1,1.2,2.1s-0.4,1.3,0,2.5c0.4,1.2,1.6,2.1,1.6,2.1s1.2,0.8,2.8,0.8c1.6,0,2.8-0.8,2.8-0.8s1.2-0.8,1.6-2.1c0.4-1.2,0-2.5,0-2.5s0.8-0.8,1.2-2.1C34.1,26.6,33.7,25.3,33.7,25.3z"/>
  <circle fill="#0277BD" cx="23.3" cy="18.3" r="2"/>
</svg>
