<?xml version="1.0" encoding="UTF-8"?>
<svg xmlns="http://www.w3.org/2000/svg" viewBox="0 0 48 48">
  <path fill="#2196F3" d="M24,0C10.745,0,0,10.745,0,24s10.745,24,24,24s24-10.745,24-24S37.255,0,24,0z"/>
  <path fill="#FFFFFF" d="M24.3,12c-8.2,0-14.8,4-14.8,9c0,5,6.7,9,14.8,9c0.8,0,1.6,0,2.3-0.1c2.2,2.1,4.9,3.5,7.7,4.1v-0.9c-1.5-0.7-2.8-1.7-2.8-3c0-1.8,2.3-3.3,2.3-3.3c-1.5-0.7-2.5-1.6-3.1-2.6C29.4,24.7,28.4,25,27.3,25c-3.3,0-6-2.7-6-6s2.7-6,6-6c2.7,0,5,1.8,5.8,4.3c1.5-0.9,3.2-1.3,5-1.3c0.8,0,1.6,0.1,2.3,0.2c-1.8-2.4-6.1-4.2-11.1-4.2z"/>
</svg>
